<svg id="Lager_1" data-name="Lager 1" xmlns="http://www.w3.org/2000/svg" viewBox="0 0 12 12"><defs><style>.cls-1{fill:#fff;}.cls-2{fill:#fabb00;}</style></defs><title>Calendar_icon</title><path class="cls-1" d="M3,2c-.13,0-.36-.28-.36-.74S2.83.52,3,.52s.36.29.36.74S3.1,2,3,2Z"/><path d="M3,0c-.48,0-.86.55-.86,1.24S2.5,2.5,3,2.5s.86-.55.86-1.24S3.45,0,3,0Z"/><path class="cls-1" d="M9,2c-.13,0-.36-.28-.36-.74S8.88.52,9,.52s.36.29.36.74S9.15,2,9,2Z"/><path d="M9,0c-.48,0-.86.55-.86,1.24S8.55,2.5,9,2.5s.86-.55.86-1.24S9.5,0,9,0Z"/><path d="M0,1.42H1.65a0,0,0,0,1,0,0c0,.18-.12,1.05.43,1.42a1.18,1.18,0,0,0,1.56.06c.51-.37.64-1.59.67-1.52s3.32,0,3.32,0a2.55,2.55,0,0,0,.5,1.47,1.44,1.44,0,0,0,1.91-.09,3.1,3.1,0,0,0,.28-1.38H12V12H0Z"/><rect class="cls-2" x="0.88" y="4.36" width="10.26" height="6.78"/><rect class="cls-1" x="4.77" y="5.78" width="0.38" height="0.2"/><polygon points="5.65 5.28 4.27 5.28 4.27 6.48 5.65 6.48 5.65 5.28 5.65 5.28"/><rect class="cls-1" x="6.95" y="5.78" width="0.38" height="0.2"/><polygon points="7.83 5.28 6.45 5.28 6.45 6.48 7.83 6.48 7.83 5.28 7.83 5.28"/><rect class="cls-1" x="2.61" y="7.78" width="0.38" height="0.2"/><polygon points="3.49 7.28 2.11 7.28 2.11 8.48 3.49 8.48 3.49 7.28 3.49 7.28"/><rect class="cls-1" x="4.77" y="7.78" width="0.38" height="0.2"/><polygon points="5.65 7.28 4.27 7.28 4.27 8.48 5.65 8.48 5.65 7.28 5.65 7.28"/><rect class="cls-1" x="6.95" y="7.78" width="0.38" height="0.2"/><polygon points="7.83 7.28 6.45 7.28 6.45 8.48 7.83 8.48 7.83 7.28 7.83 7.28"/><rect class="cls-1" x="2.61" y="5.78" width="0.38" height="0.2"/><polygon points="3.49 5.28 2.11 5.28 2.11 6.48 3.49 6.48 3.49 5.28 3.49 5.28"/><rect class="cls-1" x="9.01" y="5.78" width="0.38" height="0.2"/><polygon points="9.89 5.28 8.51 5.28 8.51 6.48 9.89 6.48 9.89 5.28 9.89 5.28"/><rect class="cls-1" x="9.01" y="7.78" width="0.38" height="0.2"/><polygon points="9.89 7.28 8.51 7.28 8.51 8.48 9.89 8.48 9.89 7.28 9.89 7.28"/><rect class="cls-1" x="2.61" y="9.68" width="0.38" height="0.2"/><polygon points="3.49 9.18 2.11 9.18 2.11 10.38 3.49 10.38 3.49 9.18 3.49 9.18"/><rect class="cls-1" x="4.77" y="9.68" width="0.38" height="0.2"/><polygon points="5.65 9.18 4.27 9.18 4.27 10.38 5.65 10.38 5.65 9.18 5.65 9.18"/><rect class="cls-1" x="6.95" y="9.68" width="0.38" height="0.2"/><polygon points="7.83 9.18 6.45 9.18 6.45 10.38 7.83 10.38 7.83 9.18 7.83 9.18"/><rect class="cls-1" x="9.01" y="9.68" width="0.38" height="0.2"/><polygon points="9.89 9.18 8.51 9.18 8.51 10.38 9.89 10.38 9.89 9.18 9.89 9.18"/></svg>