<svg id="Lager_1" data-name="Lager 1" xmlns="http://www.w3.org/2000/svg" viewBox="0 0 12 12"><title>Settings_icon</title><g id="Inställningar"><path d="M6.85,11.48c-.61,0-1.6,0-2,0a.32.32,0,0,1-.1-.21c0-.33-.1-1.59-.1-1.59V9.52l-.06-.11a1.21,1.21,0,0,0-1-.59,1,1,0,0,0-.24,0,7.49,7.49,0,0,0-.86.34c-.22.1-.55.24-.76.32C1.49,9.13.88,8.23.61,7.79c.2-.16,1.35-1,1.35-1l.06,0,0-.06A1.06,1.06,0,0,0,2.14,5.5a3.41,3.41,0,0,0-.86-.76C1.05,4.57.7,4.31.54,4.15a10.11,10.11,0,0,1,.89-1.72l.07-.09c.35.08,1.2.38,1.91.66l0,0h.05a2,2,0,0,0,.28,0,.79.79,0,0,0,.84-.46,9,9,0,0,0,.2-2h2.3v0l.12,1.14.12.87,0,.08a1,1,0,0,0,.87.5,1.18,1.18,0,0,0,.5-.12c.36-.17,1.2-.49,1.6-.64.22.38.73,1.22,1,1.64-.44.37-1.48,1.21-1.48,1.21A1,1,0,0,0,9.45,6a.8.8,0,0,0,.36.69c.28.2,1.06.9,1.52,1.31l-.27.49a10.87,10.87,0,0,1-.65,1.14c-.31-.1-1.15-.44-1.84-.75L8.45,8.8H8.32a1.25,1.25,0,0,0-1,.57,4,4,0,0,0-.16,1c0,.29-.08.77-.12,1.05ZM5.85,3A3.06,3.06,0,0,0,2.77,6,3.08,3.08,0,0,0,8.93,6,3.06,3.06,0,0,0,5.85,3Z"/><path d="M5.29,1H6.67l.08.76c.05.41.1.77.1.77v.05a3.65,3.65,0,0,0-1.71-.08A13.37,13.37,0,0,0,5.29,1M1.7,2.91c.41.13,1,.35,1.53.54l.1,0A3.52,3.52,0,0,0,2.4,5a6,6,0,0,0-.82-.68L1.14,4A10.48,10.48,0,0,1,1.7,2.91M10.17,3l.56.92-1.1.9a1.77,1.77,0,0,0-.31.27,3.5,3.5,0,0,0-.79-1.46A1.75,1.75,0,0,0,9,3.51c.24-.11.74-.31,1.17-.48M9.31,6.89a1.54,1.54,0,0,0,.21.18c.2.14.72.6,1.19,1l-.08.15c-.09.18-.27.51-.42.77-.39-.15-1-.38-1.43-.6l-.23-.1a3.5,3.5,0,0,0,.76-1.41M2.42,7a3.51,3.51,0,0,0,.8,1.37,8.59,8.59,0,0,0-.88.35L2,8.9c-.21-.29-.47-.68-.68-1l1-.74.11-.08L2.42,7M6.76,9.4a7.78,7.78,0,0,0-.13,1c0,.16,0,.39-.06.6l-1.3,0c0-.48-.08-1.34-.08-1.34V9.45A3.65,3.65,0,0,0,6.76,9.4M4.58,0c-.13,0-.26.36-.26.36s-.09,1.81-.17,2-.23.14-.37.14h-.2a15.92,15.92,0,0,0-2.21-.71c-.08,0-.19.1-.31.26L1,2.13A9.38,9.38,0,0,0,0,4.2c-.05.31,1.53,1.25,1.72,1.55a.58.58,0,0,1-.05.61s-1.2.89-1.38,1S0,7.69,0,7.76a17.3,17.3,0,0,0,1.59,2.29h0c.28,0,1.52-.62,1.89-.72l.12,0a.72.72,0,0,1,.53.35s.08,1.27.1,1.6a.85.85,0,0,0,.44.66s1.36,0,2.13,0a3.78,3.78,0,0,0,.5,0c.21-.05.29-2.14.39-2.37s.62-.28.62-.28a14.3,14.3,0,0,0,2.17.81h0c.31,0,1-1.65,1.25-2s.08-.38.08-.38-1.35-1.22-1.77-1.53.1-.61.1-.61,1.35-1.09,1.61-1.32.1-.33.1-.33-1.09-1.78-1.2-2a.27.27,0,0,0-.25-.16h-.06s-1.35.51-1.85.74a.68.68,0,0,1-.29.07.53.53,0,0,1-.44-.25s0-.35-.1-.76L7.61.47h0C7.61.18,7.22,0,7.22,0ZM5.85,8.52A2.53,2.53,0,1,1,8.43,6,2.55,2.55,0,0,1,5.85,8.52Z"/></g></svg>
